<svg xmlns="http://www.w3.org/2000/svg" version="1.1" xmlns:xlink="http://www.w3.org/1999/xlink" xmlns:svgjs="http://svgjs.dev/svgjs" width="2000" height="1247" viewBox="0 0 2000 1247"><g transform="matrix(1,0,0,1,-1.2121212121212466,0.504858299595071)"><svg viewBox="0 0 396 247" data-background-color="#010536" preserveAspectRatio="xMidYMid meet" height="1247" width="2000" xmlns="http://www.w3.org/2000/svg" xmlns:xlink="http://www.w3.org/1999/xlink"><g id="tight-bounds" transform="matrix(1,0,0,1,0.2400000000000091,-0.09999999999999432)"><svg viewBox="0 0 395.52 247.2" height="247.2" width="395.52"><g><svg></svg></g><g><svg viewBox="0 0 395.52 247.2" height="247.2" width="395.52"><g transform="matrix(1,0,0,1,75.54432,113.30815326315789)"><svg viewBox="0 0 244.43135999999998 20.58369347368421" height="20.58369347368421" width="244.43135999999998"><g><svg viewBox="0 0 244.43135999999998 20.58369347368421" height="20.58369347368421" width="244.43135999999998"><g><svg viewBox="0 0 244.43135999999998 20.58369347368421" height="20.58369347368421" width="244.43135999999998"><g><svg viewBox="0 0 244.43135999999998 20.58369347368421" height="20.58369347368421" width="244.43135999999998"><g id="textblocktransform"><svg viewBox="0 0 244.43135999999998 20.58369347368421" height="20.58369347368421" width="244.43135999999998" id="textblock"><g><svg viewBox="0 0 244.43135999999998 20.58369347368421" height="20.58369347368421" width="244.43135999999998"><g transform="matrix(1,0,0,1,0,0)"><svg width="244.43135999999998" viewBox="6.25 -50 637.469970703125 50" height="20.58369347368421" data-palette-color="#fbfbf8"><path d="M31.25-6.25L18.75-6.25 18.75-31.25 6.25-31.25 6.25-37.5 18.75-37.5 18.75-43.75 25-43.75 25-50 43.75-50 43.75-43.75 31.25-43.75 31.25-37.5 43.75-37.5 43.75-31.25 31.25-31.25 31.25-6.25ZM93.75-6.25L56.25-6.25 56.25-12.5 68.75-12.5 68.75-43.75 62.5-43.75 62.5-50 81.25-50 81.25-12.5 93.75-12.5 93.75-6.25ZM143.75-6.25L106.25-6.25 106.25-12.5 100-12.5 100-18.75 106.25-18.75 106.25-25 131.25-25 131.25-31.25 106.25-31.25 106.25-37.5 137.5-37.5 137.5-31.25 143.75-31.25 143.75-6.25ZM112.5-18.75L112.5-12.5 131.25-12.5 131.25-18.75 112.5-18.75ZM156.24-6.25L149.99-6.25 149.99-37.5 187.49-37.5 187.49-31.25 193.74-31.25 193.74-6.25 181.24-6.25 181.24-31.25 174.99-31.25 174.99-6.25 162.49-6.25 162.49-31.25 156.24-31.25 156.24-6.25ZM231.24-43.75L218.74-43.75 218.74-50 231.24-50 231.24-43.75ZM243.74-6.25L206.24-6.25 206.24-12.5 218.74-12.5 218.74-31.25 212.49-31.25 212.49-37.5 231.24-37.5 231.24-12.5 243.74-12.5 243.74-6.25ZM262.49-6.25L249.99-6.25 249.99-37.5 287.49-37.5 287.49-31.25 293.74-31.25 293.74-6.25 281.24-6.25 281.24-31.25 262.49-31.25 262.49-6.25ZM337.49-6.25L299.99-6.25 299.99-12.5 331.24-12.5 331.24-18.75 306.24-18.75 306.24-25 299.99-25 299.99-31.25 306.24-31.25 306.24-37.5 337.49-37.5 337.49-31.25 312.49-31.25 312.49-25 337.49-25 337.49-18.75 343.74-18.75 343.74-12.5 337.49-12.5 337.49-6.25ZM362.48-6.25L349.98-6.25 349.98-50 362.48-50 362.48-37.5 387.48-37.5 387.48-31.25 393.73-31.25 393.73-6.25 381.23-6.25 381.23-31.25 362.48-31.25 362.48-6.25ZM431.23-43.75L418.73-43.75 418.73-50 431.23-50 431.23-43.75ZM443.73-6.25L406.23-6.25 406.23-12.5 418.73-12.5 418.73-31.25 412.48-31.25 412.48-37.5 431.23-37.5 431.23-12.5 443.73-12.5 443.73-6.25ZM462.48-6.25L449.98-6.25 449.98-37.5 487.48-37.5 487.48-31.25 493.73-31.25 493.73-6.25 481.23-6.25 481.23-31.25 462.48-31.25 462.48-6.25ZM537.48-43.75L524.98-43.75 524.98-50 537.48-50 537.48-43.75ZM531.23 0L506.23 0 506.23-6.25 524.98-6.25 524.98-31.25 518.73-31.25 518.73-37.5 537.48-37.5 537.48-6.25 531.23-6.25 531.23 0ZM593.72-6.25L556.22-6.25 556.22-12.5 549.97-12.5 549.97-18.75 556.22-18.75 556.22-25 581.22-25 581.22-31.25 556.22-31.25 556.22-37.5 587.47-37.5 587.47-31.25 593.72-31.25 593.72-6.25ZM562.47-18.75L562.47-12.5 581.22-12.5 581.22-18.75 562.47-18.75ZM612.47-6.25L599.97-6.25 599.97-37.5 637.47-37.5 637.47-31.25 643.72-31.25 643.72-6.25 631.22-6.25 631.22-31.25 612.47-31.25 612.47-6.25Z" opacity="1" transform="matrix(1,0,0,1,0,0)" fill="#ffffff" class="wordmark-text-0" data-fill-palette-color="primary" id="text-0"></path></svg></g></svg></g></svg></g></svg></g></svg></g></svg></g></svg></g><path d="M168.184 107.308L168.184 41.476 3.937 41.476 3.937 205.724 168.184 205.724 168.184 139.892 166.328 139.892 166.328 203.867 5.793 203.867 5.793 43.333 166.328 43.333 166.328 107.308Z" fill="#ffffff" stroke="transparent" data-fill-palette-color="primary"></path></svg></g><defs></defs></svg><rect width="395.52" height="247.2" fill="none" stroke="none" visibility="hidden"></rect></g></svg></g></svg>